<?xml version="1.0" encoding="UTF-8"?>
<svg version="1.1" xmlns="http://www.w3.org/2000/svg" width="512" height="512">
<path d="M0 0 C0.86957336 0.00215515 1.73914673 0.0043103 2.6350708 0.00653076 C41.63008536 0.16085165 79.26811013 9.10808422 114.3125 26.3125 C115.06112305 26.67988281 115.80974609 27.04726563 116.58105469 27.42578125 C141.07515501 39.60290974 162.52510641 56.55311022 182.3125 75.3125 C183.06660156 76.0240625 183.82070313 76.735625 184.59765625 77.46875 C189.4713588 82.19711351 193.78995091 87.30457485 197.99072266 92.63574219 C198.92375755 93.81935571 199.86137767 94.99936167 200.80224609 96.17675781 C209.21193362 106.72450149 216.66329432 117.57309677 223.3125 129.3125 C223.77398437 130.12702637 224.23546875 130.94155273 224.7109375 131.78076172 C246.04210134 169.91316338 256.81601115 212.32311356 256.625 255.9375 C256.62226578 257.24361237 256.62226578 257.24361237 256.61947632 258.57611084 C256.5427375 280.44142506 253.83951586 301.14537346 248.3125 322.3125 C248.09754883 323.14168945 247.88259766 323.97087891 247.66113281 324.82519531 C238.56989628 359.11097971 221.67698328 390.87941079 199.3125 418.3125 C198.86471191 418.86325195 198.41692383 419.41400391 197.95556641 419.98144531 C187.01390613 433.33049904 175.03339364 445.80052503 161.3125 456.3125 C160.1352685 457.24199987 158.9581953 458.17170027 157.78125 459.1015625 C147.50035863 467.11877137 136.63262993 473.8672104 125.3125 480.3125 C124.60544922 480.72097168 123.89839844 481.12944336 123.16992188 481.55029297 C86.15818115 502.79018749 43.17123735 512.82228202 0.6875 512.625 C-0.13622101 512.62317719 -0.95994202 512.62135437 -1.80862427 512.61947632 C-59.6091129 512.40539269 -117.14550153 492.46131045 -161.6875 455.3125 C-162.25243164 454.84908203 -162.81736328 454.38566406 -163.39941406 453.90820312 C-176.74326794 442.94744879 -189.11782922 430.99785732 -199.6875 417.3125 C-200.84765625 415.87777344 -200.84765625 415.87777344 -202.03125 414.4140625 C-237.50452057 369.84795991 -256.24845394 313.42416839 -256 256.6875 C-255.99817719 255.81642609 -255.99635437 254.94535217 -255.99447632 254.04788208 C-255.94502148 239.95035486 -255.23503903 226.20632755 -252.6875 212.3125 C-252.52652832 211.39404297 -252.36555664 210.47558594 -252.19970703 209.52929688 C-247.9944085 186.14767546 -240.18640777 163.5961883 -229.6875 142.3125 C-229.33220215 141.58417969 -228.9769043 140.85585937 -228.61083984 140.10546875 C-213.24131276 108.90258797 -190.11235215 79.75102699 -162.6875 58.3125 C-161.59649833 57.43242309 -160.5067085 56.55084233 -159.41796875 55.66796875 C-128.27290525 30.56182033 -92.52767238 14.42093649 -53.6875 5.3125 C-52.97513184 5.14379395 -52.26276367 4.97508789 -51.52880859 4.80126953 C-34.57315612 0.86627049 -17.34784526 -0.07821316 0 0 Z " fill="#0DC0DE" transform="translate(255.6875,-0.3125)"/>
<path d="M0 0 C0.92844727 0.00531738 1.85689453 0.01063477 2.81347656 0.01611328 C9.29879014 0.10596592 15.37786263 0.70522671 21.6875 2.25 C22.43515625 2.37117188 23.1828125 2.49234375 23.953125 2.6171875 C34.22169107 4.37648728 43.33926347 10.0276479 49.6875 18.25 C51.33647697 20.95181216 52.89604647 23.68329977 54.39819336 26.46923828 C57.62854904 32.38855799 61.47938291 37.78859377 65.47558594 43.21264648 C72.69666489 53.13148808 76.08579516 62.1964773 76.0625 74.5 C76.06117065 75.7852356 76.06117065 75.7852356 76.05981445 77.09643555 C75.87032304 87.65889852 74.48400356 99.25219916 70.1015625 108.96875 C68.74278938 112.1217042 68.2292101 114.5512514 67.875 117.9375 C64.83960897 137.02046222 48.89656842 154.89322634 35.6875 168.25 C35.00429688 168.99378906 34.32109375 169.73757813 33.6171875 170.50390625 C20.39656946 184.60768298 -0.18414557 191.97099662 -18.33203125 197.3203125 C-21.27447148 198.18134346 -21.27447148 198.18134346 -23.8515625 199.34375 C-31.90992454 202.3112738 -40.09110391 200.06686452 -47.71875 196.9296875 C-50.24655231 196.01959821 -50.24655231 196.01959821 -52.4375 196.9296875 C-54.41316997 198.32088844 -56.08149914 199.8145518 -57.8125 201.5 C-69.89769124 212.18045499 -83.62745012 213.37744667 -99.15625 213.61328125 C-103.88176097 213.06937962 -107.08830241 211.66735992 -110.21875 208.04296875 C-116.7615427 197.34678559 -123.83293865 185.14751409 -122.3125 172.25 C-119.26976798 161.74370558 -113.30299948 152.56247836 -104.3125 146.25 C-99.08732868 144.00950987 -94.21841396 143.86661093 -88.625 143.875 C-87.74102539 143.87371094 -86.85705078 143.87242187 -85.94628906 143.87109375 C-79.08430804 143.98189271 -73.51744731 145.26831057 -67.3125 148.25 C-67.06052856 147.3542627 -67.06052856 147.3542627 -66.8034668 146.44042969 C-64.65402046 139.01703217 -61.91575074 131.90944929 -59.00976562 124.75390625 C-56.31920307 118.20108622 -56.31920307 118.20108622 -56.3125 111.25 C-57.62966203 108.87968228 -58.93227259 106.810317 -60.5 104.625 C-64.69633696 98.44455221 -67.79125216 92.30949396 -70.3125 85.25 C-70.63089844 84.43273437 -70.94929688 83.61546875 -71.27734375 82.7734375 C-76.5285635 67.91514753 -72.2813003 53.74400272 -65.8125 40.08203125 C-58.98514863 28.25364501 -46.8398057 19.59239319 -36.3125 11.25 C-35.26835937 10.36828125 -35.26835937 10.36828125 -34.203125 9.46875 C-29.2558714 5.43179106 -24.48057772 3.72029759 -18.3125 2.25 C-17.10207031 1.899375 -15.89164062 1.54875 -14.64453125 1.1875 C-9.76505059 -0.02693836 -5.00606083 -0.05159954 0 0 Z " fill="#00BC61" transform="translate(375.3125,99.75)"/>
<path d="M0 0 C4.41564881 3.36430385 6.99188851 7.66235757 8.4375 13 C8.499375 13.66 8.56125 14.32 8.625 15 C9.676875 14.401875 10.72875 13.80375 11.8125 13.1875 C23.23969094 7.52428897 36.05424528 6.25946272 48.3125 9.5625 C61.05986465 13.96862127 67.15474183 22.89444368 73.859375 34.0546875 C77.94846595 44.44431655 72.85157641 58.36796197 68.9375 68.0625 C61.05178997 85.51132049 46.7029645 103.281357 30.625 114 C31.90794925 118.02109556 33.40191759 121.83683108 35.125 125.6875 C39.93237579 137.15996908 41.79968905 149.30117325 37.08203125 161.0703125 C26.43064153 182.48731595 7.41535861 195.47282814 -14.625 203.3125 C-19.5837989 204.8746837 -24.18796405 205.78914488 -29.375 206 C-30.88900391 206.09474609 -30.88900391 206.09474609 -32.43359375 206.19140625 C-47.77105986 206.75143151 -57.45227258 199.67651431 -69.375 191 C-72.29715269 192.39828691 -74.31974912 193.78522546 -76.625 196.0625 C-80.56380165 199.49524576 -83.14093784 200.1661607 -88.375 200 C-93.44072911 197.56845003 -97.13934357 193.54256652 -100.375 189 C-101.35598736 186.05703791 -101.41854567 184.565927 -101.2265625 181.54296875 C-101.19175781 180.67736328 -101.15695313 179.81175781 -101.12109375 178.91992188 C-101.04082997 177.10880859 -100.93691936 175.29857786 -100.80859375 173.49023438 C-100.58947679 168.41683876 -100.58947679 168.41683876 -102.92480469 164.09619141 C-104.79313292 162.47463472 -104.79313292 162.47463472 -106.75927734 161.1496582 C-108.375 160 -108.375 160 -109.375 158 C-109.83475432 153.47908256 -109.96823764 150.27724895 -107.5 146.375 C-102.41755098 140.15362683 -96.0175082 136.97797915 -88.125 136.125 C-83.82807171 135.55758511 -81.61841333 134.99176666 -78.875 131.5625 C-75.28668579 125.71837423 -73.21677484 119.28601097 -71.5234375 112.67578125 C-69.11197841 103.31302924 -65.36686059 96.19010894 -60.375 88 C-58.38410383 84.68988818 -58.16708238 82.33682728 -58.28515625 78.4921875 C-58.31512695 76.88730469 -58.31512695 76.88730469 -58.34570312 75.25 C-58.40626705 73.02330938 -58.47127545 70.79673461 -58.54101562 68.5703125 C-58.66378092 61.49225835 -57.87732392 55.63736982 -55.375 49 C-56.798125 49.1546875 -56.798125 49.1546875 -58.25 49.3125 C-64.27543622 49.28800636 -69.67023487 46.33189816 -74.16015625 42.4609375 C-77.00090247 39.12167592 -77.72161355 36.36899294 -77.5625 32 C-76.66778684 26.59888754 -74.54910569 23.44708907 -70.375 20 C-64.09316374 16.25498396 -58.6198392 15.58200918 -51.4375 15.6875 C-42.58586031 15.52021347 -38.11684659 13.83108643 -31.375 8 C-29.13182548 6.46043204 -26.8234015 5.03965042 -24.5 3.625 C-23.43007812 2.95726563 -22.36015625 2.28953125 -21.2578125 1.6015625 C-14.76973499 -2.00292501 -7.05814805 -2.09130313 0 0 Z " fill="#00BD61" transform="translate(193.375,107)"/>
<path d="M0 0 C4.00399956 0.50323492 6.29971147 2.39313889 8.859375 5.359375 C10.37687723 7.75985019 11.52556129 10.26488912 12.671875 12.859375 C15.79799007 19.53496519 19.40347261 25.37585234 23.78125 31.296875 C28.2134322 37.82851193 30.54209867 42.89707661 30.296875 50.859375 C30.28148682 51.64272217 30.26609863 52.42606934 30.25024414 53.2331543 C29.62024278 72.68076634 24.15095529 94.00632304 11.859375 109.359375 C11.12460937 110.2875 10.38984375 111.215625 9.6328125 112.171875 C8.13713531 114.0221973 6.62572984 115.85993425 5.09765625 117.68359375 C2.22105341 121.12246451 -0.54640601 124.64304182 -3.31640625 128.16796875 C-6.62979052 132.1482869 -9.53761725 134.75878357 -14.203125 137.046875 C-19.62518188 139.88492619 -24.043784 143.37886379 -28.6328125 147.40625 C-37.21278959 154.08847515 -49.82343103 152.52401107 -60.140625 152.359375 C-61.92844546 148.78373408 -61.72660557 145.20932209 -61.140625 141.359375 C-59.83567454 138.06511896 -58.30743399 134.94201426 -56.73046875 131.76953125 C-54.69070882 127.39432137 -53.36092236 122.94046348 -52.0078125 118.31640625 C-48.74907306 107.20439833 -48.74907306 107.20439833 -45.140625 104.359375 C-43.23248291 103.98083496 -43.23248291 103.98083496 -41.05566406 103.97460938 C-40.23761292 103.96449829 -39.41956177 103.95438721 -38.57672119 103.94396973 C-37.6954657 103.94699097 -36.81421021 103.95001221 -35.90625 103.953125 C-34.99486267 103.94228882 -34.08347534 103.93145264 -33.14447021 103.92028809 C-30.22645009 103.88598265 -27.30882034 103.87043241 -24.390625 103.859375 C-20.56212671 103.84476241 -16.73449433 103.8109516 -12.90625 103.765625 C-12.03309143 103.76864624 -11.15993286 103.77166748 -10.26031494 103.77478027 C-4.80507115 103.70837712 -1.01138733 102.84496172 3.859375 100.359375 C3.859375 98.379375 3.859375 96.399375 3.859375 94.359375 C-3.64269519 90.71279911 -10.549929 91.11290412 -18.765625 91.359375 C-21.34075929 91.43616827 -23.91635007 91.49917431 -26.4921875 91.546875 C-28.19109131 91.59908203 -28.19109131 91.59908203 -29.92431641 91.65234375 C-33.70472048 91.30799238 -36.00193312 90.49468133 -39.140625 88.359375 C-40.45754664 85.31089825 -40.29780422 83.85198444 -39.29199219 80.69970703 C-38.84500977 79.76497559 -38.39802734 78.83024414 -37.9375 77.8671875 C-37.45152344 76.83207031 -36.96554687 75.79695313 -36.46484375 74.73046875 C-35.94535156 73.65925781 -35.42585938 72.58804688 -34.890625 71.484375 C-33.88486245 69.36224174 -32.87964013 67.23985235 -31.875 65.1171875 C-31.39740234 64.11397461 -30.91980469 63.11076172 -30.42773438 62.07714844 C-27.7467423 56.4161462 -25.65536722 50.96883528 -24.140625 44.859375 C-23.17628109 40.96985456 -22.1745493 37.28241134 -20.546875 33.625 C-18.92292829 29.85383487 -18.51600041 27.41943482 -19.140625 23.359375 C-21.93288548 20.56711452 -24.6420955 20.13286625 -28.453125 19.921875 C-34.40401179 20.13015604 -38.7547294 22.46419552 -43.34375 26.109375 C-45.71105167 29.0736484 -45.5737504 30.84722264 -45.578125 34.609375 C-45.83179537 40.37735597 -46.73371701 45.41211345 -48.453125 50.921875 C-48.65413818 51.58799805 -48.85515137 52.25412109 -49.06225586 52.94042969 C-50.42578535 57.10773984 -52.2138511 60.10809739 -55.140625 63.359375 C-56.953125 62.859375 -56.953125 62.859375 -59.140625 61.359375 C-62.42580654 54.78901192 -63.62078895 48.0731279 -61.37890625 40.93359375 C-56.72910462 29.99828952 -49.1445616 21.85731509 -40.140625 14.359375 C-39.35429687 13.67359375 -38.56796875 12.9878125 -37.7578125 12.28125 C-25.93231671 2.27220968 -14.76330308 1.68933319 0 0 Z " fill="#000605" transform="translate(392.140625,121.640625)"/>
<path d="M0 0 C4.41564881 3.36430385 6.99188851 7.66235757 8.4375 13 C8.499375 13.66 8.56125 14.32 8.625 15 C9.676875 14.401875 10.72875 13.80375 11.8125 13.1875 C23.23969094 7.52428897 36.05424528 6.25946272 48.3125 9.5625 C61.05986465 13.96862127 67.15474183 22.89444368 73.859375 34.0546875 C77.94846595 44.44431655 72.85157641 58.36796197 68.9375 68.0625 C61.05178997 85.51132049 46.7029645 103.281357 30.625 114 C31.90794925 118.02109556 33.40191759 121.83683108 35.125 125.6875 C39.93237579 137.15996908 41.79968905 149.30117325 37.08203125 161.0703125 C26.43064153 182.48731595 7.41535861 195.47282814 -14.625 203.3125 C-19.5837989 204.8746837 -24.18796405 205.78914488 -29.375 206 C-30.88900391 206.09474609 -30.88900391 206.09474609 -32.43359375 206.19140625 C-47.77105986 206.75143151 -57.45227258 199.67651431 -69.375 191 C-72.29715269 192.39828691 -74.31974912 193.78522546 -76.625 196.0625 C-80.56380165 199.49524576 -83.14093784 200.1661607 -88.375 200 C-93.44072911 197.56845003 -97.13934357 193.54256652 -100.375 189 C-101.35598736 186.05703791 -101.41854567 184.565927 -101.2265625 181.54296875 C-101.19175781 180.67736328 -101.15695313 179.81175781 -101.12109375 178.91992188 C-101.04082997 177.10880859 -100.93691936 175.29857786 -100.80859375 173.49023438 C-100.58947679 168.41683876 -100.58947679 168.41683876 -102.92480469 164.09619141 C-104.79313292 162.47463472 -104.79313292 162.47463472 -106.75927734 161.1496582 C-108.375 160 -108.375 160 -109.375 158 C-109.83475432 153.47908256 -109.96823764 150.27724895 -107.5 146.375 C-102.41755098 140.15362683 -96.0175082 136.97797915 -88.125 136.125 C-83.82807171 135.55758511 -81.61841333 134.99176666 -78.875 131.5625 C-75.28668579 125.71837423 -73.21677484 119.28601097 -71.5234375 112.67578125 C-69.11197841 103.31302924 -65.36686059 96.19010894 -60.375 88 C-58.38410383 84.68988818 -58.16708238 82.33682728 -58.28515625 78.4921875 C-58.31512695 76.88730469 -58.31512695 76.88730469 -58.34570312 75.25 C-58.40626705 73.02330938 -58.47127545 70.79673461 -58.54101562 68.5703125 C-58.66378092 61.49225835 -57.87732392 55.63736982 -55.375 49 C-56.798125 49.1546875 -56.798125 49.1546875 -58.25 49.3125 C-64.27543622 49.28800636 -69.67023487 46.33189816 -74.16015625 42.4609375 C-77.00090247 39.12167592 -77.72161355 36.36899294 -77.5625 32 C-76.66778684 26.59888754 -74.54910569 23.44708907 -70.375 20 C-64.09316374 16.25498396 -58.6198392 15.58200918 -51.4375 15.6875 C-42.58586031 15.52021347 -38.11684659 13.83108643 -31.375 8 C-29.13182548 6.46043204 -26.8234015 5.03965042 -24.5 3.625 C-23.43007812 2.95726563 -22.36015625 2.28953125 -21.2578125 1.6015625 C-14.76973499 -2.00292501 -7.05814805 -2.09130313 0 0 Z M-20.125 9.0625 C-21.17518311 9.67061523 -21.17518311 9.67061523 -22.24658203 10.29101562 C-27.18534376 13.1885438 -31.93312435 16.3035758 -36.5546875 19.6875 C-39.52891457 21.83200707 -41.33116201 22.12697814 -44.953125 22.17578125 C-46.32404297 22.21155273 -46.32404297 22.21155273 -47.72265625 22.24804688 C-49.64170833 22.29066378 -51.56104455 22.32210374 -53.48046875 22.34179688 C-59.43279074 22.52128485 -62.7701388 23.1662878 -67.375 27 C-68.3340625 27.6496875 -68.3340625 27.6496875 -69.3125 28.3125 C-70.6802576 30.15246556 -70.6802576 30.15246556 -70.375 33.4375 C-69.20253716 37.61439886 -67.97723375 38.71565665 -64.375 41 C-61.83525013 42.26987493 -60.02391633 42.1328246 -57.1875 42.125 C-56.26582031 42.12757813 -55.34414062 42.13015625 -54.39453125 42.1328125 C-51.00628556 41.98378229 -47.72374021 41.52545612 -44.375 41 C-44.8803125 42.0209375 -45.385625 43.041875 -45.90625 44.09375 C-50.17637595 53.40266812 -51.86684988 61.10160144 -51.5 71.375 C-51.14866131 81.55746299 -52.1527841 88.54782021 -57.83203125 97.2265625 C-62.08090893 103.75122427 -64.08657737 110.22819969 -66.19067383 117.66040039 C-71.57280173 136.44920904 -71.57280173 136.44920904 -79.13671875 141.078125 C-81.82045048 142.18346652 -84.24217707 142.43632497 -87.125 142.75 C-93.00901238 143.67905459 -97.50645321 145.30475006 -101.375 150 C-102.29405243 152.53374122 -102.375 154.25683566 -102.375 157 C-101.51201294 157.4484729 -101.51201294 157.4484729 -100.6315918 157.90600586 C-98.1480744 159.42312573 -96.2920195 160.80025272 -94.375 163 C-93.49583793 166.89956891 -93.8410452 170.6019484 -94.1875 174.5625 C-95.09669255 182.32791417 -95.09669255 182.32791417 -92.01171875 189.08984375 C-91.14160156 189.72019531 -90.27148438 190.35054687 -89.375 191 C-88.715 191.66 -88.055 192.32 -87.375 193 C-83.00144818 192.76867164 -81.09108696 191.14508453 -78.1875 188 C-74.5190536 184.0720268 -74.5190536 184.0720268 -72.375 183 C-72.375 182.34 -72.375 181.68 -72.375 181 C-66.64231508 184.54827694 -61.06699388 188.18147521 -55.6875 192.25 C-45.42870605 199.68474393 -35.5294732 200.33641945 -23.1640625 198.53125 C-2.64256228 193.90978614 16.14380949 181.83325925 27.6875 164.125 C33.74581603 154.20061922 33.74979819 145.73359844 31.0625 134.5 C29.25584606 128.10772986 26.55758854 122.95801927 22.8203125 117.48828125 C21.625 115 21.625 115 22.01953125 113.0234375 C24.38881025 110.03733891 27.25303629 107.71450673 30.1875 105.3125 C43.32693339 94.26647353 54.17770351 82.82300275 61.625 67.25 C61.99882812 66.47027832 62.37265625 65.69055664 62.7578125 64.88720703 C66.74216736 56.16405235 69.19763937 46.60784363 67.625 37 C64.05460636 28.63188991 57.51414724 20.95455523 49.3203125 16.84375 C34.87630961 11.72915226 21.73880074 16.13551418 8.53515625 22.24609375 C6.13317011 23.19411691 4.17583552 23.39856805 1.625 23 C1.295 22.67 0.965 22.34 0.625 22 C0.6837583 20.2490026 0.77212002 18.49895973 0.875 16.75 C0.93066912 12.46347781 0.93591979 11.40910499 -1.75 7.875 C-8.57675686 2.9987451 -13.49297635 5.10583183 -20.125 9.0625 Z " fill="#000706" transform="translate(193.375,107)"/>
<path d="M0 0 C0.92844727 0.00531738 1.85689453 0.01063477 2.81347656 0.01611328 C9.29879014 0.10596592 15.37786263 0.70522671 21.6875 2.25 C22.43515625 2.37117188 23.1828125 2.49234375 23.953125 2.6171875 C34.22169107 4.37648728 43.33926347 10.0276479 49.6875 18.25 C51.33647697 20.95181216 52.89604647 23.68329977 54.39819336 26.46923828 C57.62854904 32.38855799 61.47938291 37.78859377 65.47558594 43.21264648 C72.69666489 53.13148808 76.08579516 62.1964773 76.0625 74.5 C76.06117065 75.7852356 76.06117065 75.7852356 76.05981445 77.09643555 C75.87032304 87.65889852 74.48400356 99.25219916 70.1015625 108.96875 C68.74278938 112.1217042 68.2292101 114.5512514 67.875 117.9375 C64.83960897 137.02046222 48.89656842 154.89322634 35.6875 168.25 C35.00429688 168.99378906 34.32109375 169.73757813 33.6171875 170.50390625 C20.39656946 184.60768298 -0.18414557 191.97099662 -18.33203125 197.3203125 C-21.27447148 198.18134346 -21.27447148 198.18134346 -23.8515625 199.34375 C-31.90992454 202.3112738 -40.09110391 200.06686452 -47.71875 196.9296875 C-50.24655231 196.01959821 -50.24655231 196.01959821 -52.4375 196.9296875 C-54.41316997 198.32088844 -56.08149914 199.8145518 -57.8125 201.5 C-69.89769124 212.18045499 -83.62745012 213.37744667 -99.15625 213.61328125 C-103.88176097 213.06937962 -107.08830241 211.66735992 -110.21875 208.04296875 C-116.7615427 197.34678559 -123.83293865 185.14751409 -122.3125 172.25 C-119.26976798 161.74370558 -113.30299948 152.56247836 -104.3125 146.25 C-99.08732868 144.00950987 -94.21841396 143.86661093 -88.625 143.875 C-87.74102539 143.87371094 -86.85705078 143.87242187 -85.94628906 143.87109375 C-79.08430804 143.98189271 -73.51744731 145.26831057 -67.3125 148.25 C-67.06052856 147.3542627 -67.06052856 147.3542627 -66.8034668 146.44042969 C-64.65402046 139.01703217 -61.91575074 131.90944929 -59.00976562 124.75390625 C-56.31920307 118.20108622 -56.31920307 118.20108622 -56.3125 111.25 C-57.62966203 108.87968228 -58.93227259 106.810317 -60.5 104.625 C-64.69633696 98.44455221 -67.79125216 92.30949396 -70.3125 85.25 C-70.63089844 84.43273437 -70.94929688 83.61546875 -71.27734375 82.7734375 C-76.5285635 67.91514753 -72.2813003 53.74400272 -65.8125 40.08203125 C-58.98514863 28.25364501 -46.8398057 19.59239319 -36.3125 11.25 C-35.26835937 10.36828125 -35.26835937 10.36828125 -34.203125 9.46875 C-29.2558714 5.43179106 -24.48057772 3.72029759 -18.3125 2.25 C-17.10207031 1.899375 -15.89164062 1.54875 -14.64453125 1.1875 C-9.76505059 -0.02693836 -5.00606083 -0.05159954 0 0 Z M-44.74707031 27.77441406 C-46.70331943 29.61838937 -48.74569135 31.34411886 -50.8125 33.0625 C-60.2604446 41.36218694 -65.38512589 52.95971424 -66.515625 65.50390625 C-66.82740949 80.85929229 -60.14507255 94.24751711 -51.4765625 106.578125 C-48.95012445 110.20670045 -49.32234085 112.45890005 -49.85791016 116.72216797 C-50.61287999 120.92031921 -52.0207819 124.82176679 -53.5 128.8125 C-53.81243652 129.67077393 -54.12487305 130.52904785 -54.44677734 131.41333008 C-55.08740062 133.1697678 -55.7315908 134.92490879 -56.37939453 136.67871094 C-57.26941311 139.13126867 -58.10903456 141.59509754 -58.93359375 144.0703125 C-59.43453433 145.52616611 -59.93581735 146.98190194 -60.4375 148.4375 C-60.6543042 149.11433838 -60.8711084 149.79117676 -61.09448242 150.48852539 C-61.7578125 152.35546875 -61.7578125 152.35546875 -63.3125 155.25 C-66.06284541 156.41747572 -67.41003358 156.60648362 -70.19140625 155.5078125 C-70.74699219 155.13398438 -71.30257812 154.76015625 -71.875 154.375 C-77.18637921 150.8667911 -82.42799965 151.00872989 -88.625 150.9375 C-89.45451172 150.90849609 -90.28402344 150.87949219 -91.13867188 150.84960938 C-97.0781559 150.78866755 -100.50572313 151.69142487 -105.3125 155.25 C-108.09220973 158.65771823 -110.14474876 162.42982857 -112.3125 166.25 C-112.951875 167.24 -113.59125 168.23 -114.25 169.25 C-117.56489213 178.60969544 -114.6260446 185.70999157 -110.59838867 194.2355957 C-109.57186223 196.28984472 -108.48010181 198.27281374 -107.3125 200.25 C-106.95978027 200.85166992 -106.60706055 201.45333984 -106.24365234 202.07324219 C-104.63394172 204.40597599 -103.12646303 206.03173792 -100.3449707 206.77758789 C-97.96816773 206.99061928 -95.69645445 206.978681 -93.3125 206.875 C-92.46961426 206.8531665 -91.62672852 206.83133301 -90.75830078 206.80883789 C-77.9042031 206.25906747 -68.62849572 202.41229833 -59.453125 193.4296875 C-55.07442463 189.26410972 -55.07442463 189.26410972 -50.9375 189.1875 C-49.02967555 189.74668993 -47.1230774 190.31986309 -45.2578125 191.0078125 C-34.26241679 195.03815328 -26.06815766 193.31969291 -15.35205078 189.04150391 C-13.13410278 188.18076804 -10.8987471 187.38884169 -8.65234375 186.60546875 C19.23978239 176.8247863 36.21453507 160.32156764 52.6875 136.25 C53.09226562 135.66508789 53.49703125 135.08017578 53.9140625 134.47753906 C58.47901648 127.7737892 60.41596517 122.11928462 61.30078125 114.0703125 C61.76830024 110.66072953 63.10374613 108.29080744 64.6875 105.25 C68.87536001 90.20546025 72.74044677 69.78503595 65.5 55.16015625 C62.86306292 50.92628099 59.94932038 46.92862167 56.91552734 42.97119141 C53.69711397 38.75667964 51.00856674 34.47946887 48.5 29.8125 C42.15346244 18.42984356 34.97302826 13.20611169 22.64453125 9.28125 C-4.47254276 2.28329542 -25.14528995 8.93473837 -44.74707031 27.77441406 Z " fill="#000706" transform="translate(375.3125,99.75)"/>
<path d="M0 0 C2.25 0.3671875 2.25 0.3671875 4.36328125 2.4609375 C6.34514236 5.51374219 7.90452381 8.56655729 9.4375 11.8671875 C12.49310003 18.25779564 16.18133154 23.89546271 20.33203125 29.625 C26.72351642 38.76313155 24.96462032 50.36989478 23.11865234 60.95019531 C21.24320586 70.60753891 18.32098373 79.4110233 14.25 88.3671875 C13.651875 87.6040625 13.05375 86.8409375 12.4375 86.0546875 C8.18110375 80.82540068 4.91598078 78.7164049 -1.75 77.3671875 C-6.77889097 77.02338646 -11.77500453 77.08286033 -16.8125 77.1796875 C-18.16860486 77.19476794 -19.52472602 77.20845038 -20.88085938 77.22070312 C-24.17099602 77.25582914 -27.46028183 77.3050211 -30.75 77.3671875 C-29.66966449 74.00726399 -28.57424513 70.77572272 -26.98046875 67.625 C-22.25044588 58.05726954 -18.65925758 48.62731727 -15.75 38.3671875 C-15.19069367 36.47040952 -14.62867906 34.57442536 -14.0625 32.6796875 C-13.835625 31.90625 -13.60875 31.1328125 -13.375 30.3359375 C-12.75 28.3671875 -12.75 28.3671875 -11.5625 25.6796875 C-9.98723967 21.19625426 -10.31180175 17.50650296 -12 13.1171875 C-13.76958246 10.33641506 -14.87289717 8.92904332 -17.75 7.3671875 C-20.90118325 6.64673383 -20.90118325 6.64673383 -23.75 6.3671875 C-23.75 5.7071875 -23.75 5.0471875 -23.75 4.3671875 C-19.51707842 2.39954036 -15.34299025 1.75911076 -10.75 1.2421875 C-10.05132812 1.15582031 -9.35265625 1.06945312 -8.6328125 0.98046875 C-5.75498093 0.63838688 -2.87315975 0.38363213 0 0 Z " fill="#0BBDDC" transform="translate(390.75,128.6328125)"/>
<path d="M0 0 C3.52440685 2.93700571 5.87617642 5.58674659 6.63671875 10.2421875 C6.95122698 17.37827084 4.94479424 21.74970958 0.3671875 27.05859375 C-9.08106496 37.09947853 -22.50884303 46.1428758 -36.62890625 47.0625 C-42.11283652 47.1768975 -42.11283652 47.1768975 -44.75 46.875 C-47.16816448 44.45683552 -47.09788063 43.70673174 -47.1875 40.375 C-46.88607451 29.28571496 -38.96324296 19.79855868 -31.75 11.875 C-23.36157469 3.99836849 -12.05360161 -4.93101884 0 0 Z " fill="#0BBEDC" transform="translate(217.75,153.125)"/>
<path d="M0 0 C0.886875 -0.03657715 1.77375 -0.0731543 2.6875 -0.11083984 C3.46351563 -0.15442627 4.23953125 -0.1980127 5.0390625 -0.24291992 C7.0625 0.15869141 7.0625 0.15869141 8.80444336 2.00463867 C11.35014042 6.36339767 10.81766475 11.30941031 10.0625 16.15869141 C8.57249761 19.39521674 6.58545324 21.66808372 4.0625 24.15869141 C3.45921875 24.77486328 2.8559375 25.39103516 2.234375 26.02587891 C-2.60139609 30.60610111 -7.85724933 33.51600181 -13.9375 36.15869141 C-14.906875 36.59181641 -15.87625 37.02494141 -16.875 37.47119141 C-21.50276014 38.51007633 -26.21975657 38.68288512 -30.9375 38.15869141 C-33.58834389 35.50784751 -33.22386764 33.49614428 -33.26611328 29.88525391 C-33.2607959 29.04736328 -33.25547852 28.20947266 -33.25 27.34619141 C-33.24726074 26.49412109 -33.24452148 25.64205078 -33.24169922 24.76416016 C-33.10879144 16.6491474 -32.54317015 8.06719663 -27.9375 1.15869141 C-25.57421875 0.72631836 -25.57421875 0.72631836 -22.625 0.64697266 C-21.54863281 0.61152344 -20.47226563 0.57607422 -19.36328125 0.53955078 C-18.23277344 0.51699219 -17.10226563 0.49443359 -15.9375 0.47119141 C-14.83792969 0.43703125 -13.73835938 0.40287109 -12.60546875 0.36767578 C-10.42484241 0.30430052 -8.24376525 0.25479197 -6.0625 0.21972656 C-4.04072541 0.18023878 -2.01921584 0.1090833 0 0 Z " fill="#0BBDDC" transform="translate(184.9375,237.84130859375)"/>
<path d="M0 0 C5.04371847 3.64480032 8.52831386 7.93259782 10.5078125 13.87109375 C11.3657958 22.45092678 10.11036395 28.99168862 4.96484375 35.9609375 C3.22830149 38.03127736 1.41633733 39.95863382 -0.4921875 41.87109375 C-1.35263672 42.74894531 -1.35263672 42.74894531 -2.23046875 43.64453125 C-13.00103727 53.83851688 -27.56731871 60.83186949 -42.4296875 61.37109375 C-47.74348807 61.18498238 -50.70926795 60.6540133 -54.4921875 56.87109375 C-57.0397538 51.50685203 -57.42819512 46.71034128 -56.4921875 40.87109375 C-53.27740627 32.32053656 -48.59218932 24.67780309 -42.4921875 17.87109375 C-41.77546875 17.04996094 -41.05875 16.22882813 -40.3203125 15.3828125 C-30.89127563 5.22965025 -14.46837138 -6.55385475 0 0 Z M-30.4921875 15.87109375 C-31.46542969 16.6290625 -32.43867188 17.38703125 -33.44140625 18.16796875 C-36.78601619 20.96114142 -39.20318888 24.18395377 -41.6796875 27.74609375 C-42.10443359 28.33261719 -42.52917969 28.91914063 -42.96679688 29.5234375 C-46.81529512 34.96999023 -49.94373681 40.30600076 -49.8046875 47.18359375 C-49.80082031 48.02535156 -49.79695312 48.86710937 -49.79296875 49.734375 C-49.68077417 52.08359857 -49.68077417 52.08359857 -47.4921875 53.87109375 C-34.96559082 55.54565615 -23.7963973 50.57912222 -13.4921875 43.87109375 C-3.0960126 35.80045797 -3.0960126 35.80045797 3.5078125 24.87109375 C4.03219822 19.87653467 4.05784346 15.99152719 1.8203125 11.43359375 C-1.76314296 7.4627377 -3.91333264 6.02639095 -9.3046875 5.49609375 C-18.11578857 5.90859848 -23.93414482 10.34971761 -30.4921875 15.87109375 Z " fill="#000605" transform="translate(220.4921875,146.12890625)"/>
<path d="M0 0 C0.80448578 -0.01591187 1.60897156 -0.03182373 2.43783569 -0.04821777 C3.30349152 -0.04841919 4.16914734 -0.04862061 5.06103516 -0.04882812 C5.95496979 -0.05644165 6.84890442 -0.06405518 7.76992798 -0.07189941 C9.66120613 -0.08270495 11.55254398 -0.08555167 13.44384766 -0.08105469 C16.33288654 -0.08008391 19.21925597 -0.12166577 22.10791016 -0.16601562 C23.94644629 -0.17122389 25.78499165 -0.1739108 27.62353516 -0.17382812 C28.9159462 -0.19842102 28.9159462 -0.19842102 30.23446655 -0.22351074 C34.63583195 -0.17299637 36.41543793 -0.02241773 39.97753906 2.79296875 C44.46063151 8.68860243 44.9128708 15.23032781 43.97509766 22.41992188 C39.79219519 35.26740803 29.46904021 41.8506872 18.09228516 47.97070312 C10.4644987 51.58118872 3.35962492 52.57677437 -5.02490234 51.41992188 C-8.25983493 50.26122784 -10.16936999 48.65999665 -12.14599609 45.79492188 C-13.44097639 42.29559733 -13.36348343 38.8524156 -13.33740234 35.16992188 C-13.33393799 34.3794043 -13.33047363 33.58888672 -13.3269043 32.77441406 C-13.14158872 22.50731677 -12.41376166 9.99801891 -5.67758179 1.77526855 C-3.63866497 0.10317228 -2.61153601 0.03111586 0 0 Z M17.52978516 6.63867188 C15.30313669 6.7303574 13.07657332 6.82413164 10.85009766 6.91992188 C9.70283203 6.96761719 8.55556641 7.0153125 7.37353516 7.06445312 C4.57397332 7.18110153 1.77450478 7.29962735 -1.02490234 7.41992188 C-5.5116386 16.03691398 -6.20759576 23.81841387 -6.27490234 33.41992188 C-6.28416748 34.26965576 -6.29343262 35.11938965 -6.30297852 35.99487305 C-6.29886963 36.79513916 -6.29476074 37.59540527 -6.29052734 38.41992188 C-6.28827148 39.14179688 -6.28601563 39.86367188 -6.28369141 40.60742188 C-6.17404236 42.67082208 -6.17404236 42.67082208 -4.02490234 44.41992188 C6.41005291 46.00264877 15.26594566 42.54048091 23.72509766 36.66992188 C28.84252156 32.75487264 34.04824172 28.27363375 36.97509766 22.41992188 C37.12325206 20.46542343 37.19634614 18.50481658 37.22509766 16.54492188 C37.26376953 14.97097656 37.26376953 14.97097656 37.30322266 13.36523438 C36.92855638 10.00215849 36.2871284 8.83888967 33.97509766 6.41992188 C31.91471337 5.91551695 31.91471337 5.91551695 29.60791016 6.13867188 C28.27808105 6.1928125 28.27808105 6.1928125 26.92138672 6.24804688 C23.79133427 6.43064191 20.66336576 6.53443635 17.52978516 6.63867188 Z " fill="#000605" transform="translate(158.02490234375,231.580078125)"/>
<path d="M0 0 C0 4.07143878 -1.54271567 4.96827259 -4.3125 7.875 C-7.7216626 11.45779536 -7.7216626 11.45779536 -10.38671875 15.5859375 C-12.57122604 18.85476439 -15.02527535 19.95113812 -18.5 21.75 C-23.43401162 24.34535081 -27.22553287 27.00677045 -31.25 30.9375 C-38.13765297 36.96549102 -46.30562264 36.23911929 -55 36 C-54.32051824 31.9986074 -52.98632911 28.97415673 -51.11328125 25.37109375 C-47.77982695 18.2714209 -45.82954987 10.59966871 -44 3 C-43.67 2.34 -43.34 1.68 -43 1 C-41.87505127 1.00523682 -40.75010254 1.01047363 -39.59106445 1.01586914 C-35.40715331 1.03400434 -31.22324563 1.04546314 -27.03930664 1.05493164 C-25.23038142 1.05995238 -23.42146024 1.06677029 -21.61254883 1.07543945 C-19.00861614 1.08760402 -16.40473723 1.09325098 -13.80078125 1.09765625 C-12.99538406 1.10281754 -12.18998688 1.10797882 -11.36018372 1.11329651 C-7.43527399 1.11368637 -3.83300018 0.97084755 0 0 Z " fill="#0BBBDA" transform="translate(393,231)"/>
<path d="M0 0 C3.22010926 0.74612288 4.71793883 1.99649453 6.921875 4.4453125 C8.4960543 7.02323678 9.742288 9.66757537 10.921875 12.4453125 C11.334375 13.3734375 11.746875 14.3015625 12.171875 15.2578125 C13.86441628 22.45111294 13.92913946 29.36327398 10.11328125 35.8515625 C8.27320612 38.31304005 6.82043687 39.39129 3.921875 40.4453125 C-1.0751568 41.07985622 -3.09064756 40.95668475 -7.578125 38.6328125 C-9.60425055 36.71591205 -10.04400439 35.70583341 -10.41015625 32.91015625 C-10.39692278 30.98600937 -10.33279574 29.06166265 -10.22265625 27.140625 C-9.98295217 24.30224499 -9.98295217 24.30224499 -10.578125 20.9453125 C-12.48676734 7.58481609 -12.48676734 7.58481609 -9.078125 2.7578125 C-5.72272155 0.17135567 -4.12429377 -0.35661187 0 0 Z " fill="#F5FCFD" transform="translate(267.078125,358.5546875)"/>
<path d="M0 0 C2.5 1.4375 2.5 1.4375 4 4 C4.3130292 7.03116605 4.23343397 9.96535839 4 13 C4.61359375 13.26683594 5.2271875 13.53367187 5.859375 13.80859375 C9.21551283 15.67651718 10.70361308 18.50769238 12 22 C12.83054478 26.78393794 12.49543926 30.04451 10.25 34.375 C7.62156456 37.44150802 5.64953448 39.67813961 1.59765625 40.46875 C-2.87845008 40.52392542 -5.30489324 40.45877046 -9.125 37.9375 C-11.43171409 34.32364792 -11.47707476 32.21416041 -11 28 C-10.67 27.34 -10.34 26.68 -10 26 C-10.66 26 -11.32 26 -12 26 C-13.60291439 19.15476722 -14.60592376 10.44255544 -12.1640625 3.6875 C-8.84258315 -0.949196 -5.13397079 -0.814916 0 0 Z " fill="#F1FBFD" transform="translate(106,359)"/>
<path d="M0 0 C2 2 2 2 2.1953125 4.8203125 C2.16050781 6.45613281 2.16050781 6.45613281 2.125 8.125 C2.10695312 9.22070312 2.08890625 10.31640625 2.0703125 11.4453125 C2.04710937 12.28835938 2.02390625 13.13140625 2 14 C2.55429688 13.566875 3.10859375 13.13375 3.6796875 12.6875 C4.40414062 12.130625 5.12859375 11.57375 5.875 11 C6.59429687 10.443125 7.31359375 9.88625 8.0546875 9.3125 C10 8 10 8 12 8 C11.5206753 12.31392226 10.2542015 14.16569547 7 17 C7.268125 17.53625 7.53625 18.0725 7.8125 18.625 C8.204375 19.40875 8.59625 20.1925 9 21 C9.53625 21.9075 10.0725 22.815 10.625 23.75 C12.35378593 27.8362213 12.22761701 30.59940452 12 35 C6.125 34.125 6.125 34.125 5 33 C4.43118087 30.68917227 3.97236639 28.36355903 3.5 26.03125 C3.1901935 24.01766043 3.1901935 24.01766043 2 23 C1.34 26.63 0.68 30.26 0 34 C-5 35 -5 35 -6.78759766 33.97070312 C-8.54989145 31.10617724 -8.38884066 28.81576163 -8.3984375 25.46875 C-8.40230469 24.18355469 -8.40617188 22.89835937 -8.41015625 21.57421875 C-8.40387207 20.90567871 -8.39758789 20.23713867 -8.39111328 19.54833984 C-8.37505354 17.5068067 -8.39096671 15.46725292 -8.41015625 13.42578125 C-8.40628906 12.14058594 -8.40242187 10.85539062 -8.3984375 9.53125 C-8.39505371 8.35111328 -8.39166992 7.17097656 -8.38818359 5.95507812 C-8 3 -8 3 -6.63525391 1.11132812 C-4.32409391 -0.45934974 -2.73000232 -0.3500003 0 0 Z " fill="#F0FBFD" transform="translate(223,364)"/>
<path d="M0 0 C3.04654051 -0.38892006 5.07811493 -0.5956472 7.7109375 1.10546875 C9.67834279 3.99695834 9.05895186 6.27689656 8.6875 9.6875 C8.56761719 10.86699219 8.44773438 12.04648437 8.32421875 13.26171875 C8.21722656 14.16535156 8.11023438 15.06898438 8 16 C10.95288087 14.95523071 11.86400398 14.25973659 13.34375 11.43359375 C14.11545813 9.43393113 14.88628963 7.43392999 15.65625 5.43359375 C17 3 17 3 19.09375 2.09765625 C20.03734375 2.04931641 20.03734375 2.04931641 21 2 C22.94154109 3.94154109 22.35843897 7.54151122 22.5 10.125 C22.77849717 15.14789544 23.22631205 20.03550233 24 25 C20.28400809 25.20086443 19.22791555 25.1519437 16 23 C15.46375 23.33 14.9275 23.66 14.375 24 C11.26200189 25.31073605 9.35862409 25.47020737 6 25 C2.29231163 22.43313882 -0.40194845 20.23927565 -2 16 C-2.265625 12.87109375 -2.265625 12.87109375 -2.25 9.4375 C-2.25515625 8.30183594 -2.2603125 7.16617187 -2.265625 5.99609375 C-2 3 -2 3 0 0 Z " fill="#F2FBFD" transform="translate(166,374)"/>
<path d="M0 0 C0.103125 0.61875 0.20625 1.2375 0.3125 1.875 C0.87525373 4.36526484 0.87525373 4.36526484 4 6 C4.41650391 7.84765625 4.41650391 7.84765625 4.4765625 10.0625 C4.5075 10.85914063 4.5384375 11.65578125 4.5703125 12.4765625 C4.59738281 13.72566406 4.59738281 13.72566406 4.625 15 C4.6759583 16.64595302 4.73047774 18.29180078 4.7890625 19.9375 C4.80662598 20.66839844 4.82418945 21.39929688 4.84228516 22.15234375 C4.89347934 24.09489372 4.89347934 24.09489372 6 26 C2.65626525 25.44271087 -0.03312999 24.64826111 -3 23 C-3.33 23.33 -3.66 23.66 -4 24 C-6.75 24.375 -6.75 24.375 -10 24 C-12.57285724 21.827365 -14.48996919 20.02006162 -16 17 C-16.49725 10.53575002 -14.97001773 6.87925669 -11.375 1.625 C-7.76518298 -0.8448748 -4.24536918 -0.32656686 0 0 Z " fill="#F2FBFD" transform="translate(343,374)"/>
<path d="M0 0 C0.103125 0.61875 0.20625 1.2375 0.3125 1.875 C0.87525373 4.36526484 0.87525373 4.36526484 4 6 C4.41650391 7.84765625 4.41650391 7.84765625 4.4765625 10.0625 C4.5075 10.85914063 4.5384375 11.65578125 4.5703125 12.4765625 C4.59738281 13.72566406 4.59738281 13.72566406 4.625 15 C4.6759583 16.64595302 4.73047774 18.29180078 4.7890625 19.9375 C4.80662598 20.66839844 4.82418945 21.39929688 4.84228516 22.15234375 C4.89347934 24.09489372 4.89347934 24.09489372 6 26 C2.65626525 25.44271087 -0.03312999 24.64826111 -3 23 C-3.33 23.33 -3.66 23.66 -4 24 C-6.75 24.375 -6.75 24.375 -10 24 C-12.57285724 21.827365 -14.48996919 20.02006162 -16 17 C-16.49725 10.53575002 -14.97001773 6.87925669 -11.375 1.625 C-7.76518298 -0.8448748 -4.24536918 -0.32656686 0 0 Z " fill="#F2FBFD" transform="translate(158,374)"/>
<path d="M0 0 C1.21236328 0.04060547 1.21236328 0.04060547 2.44921875 0.08203125 C3.06410156 0.11683594 3.67898438 0.15164063 4.3125 0.1875 C4.3125 1.8375 4.3125 3.4875 4.3125 5.1875 C5.6325 5.8475 6.9525 6.5075 8.3125 7.1875 C8.37308594 8.39148438 8.43367188 9.59546875 8.49609375 10.8359375 C8.58049732 12.41147077 8.66514541 13.98699096 8.75 15.5625 C8.78931641 16.3565625 8.82863281 17.150625 8.86914062 17.96875 C9.00143404 22.21351221 9.00143404 22.21351221 10.3125 26.1875 C6.96876525 25.63021087 4.27937001 24.83576111 1.3125 23.1875 C0.9825 23.5175 0.6525 23.8475 0.3125 24.1875 C-5.9173784 24.77522438 -5.9173784 24.77522438 -9.0625 22.375 C-12.0440025 18.36143895 -12.36739138 14.03861686 -11.6875 9.1875 C-9.875 5.875 -9.875 5.875 -7.6875 3.1875 C-7.2440625 2.6409375 -6.800625 2.094375 -6.34375 1.53125 C-4.13693516 -0.25918468 -2.80145153 -0.12180224 0 0 Z " fill="#F3FCFD" transform="translate(292.6875,373.8125)"/>
<path d="M0 0 C1.99616554 1.99616554 1.40983427 5.81701963 1.5625 8.5625 C1.60568359 9.27341797 1.64886719 9.98433594 1.69335938 10.71679688 C1.79971777 12.47761912 1.90038846 14.2387832 2 16 C3.39798828 15.94199219 3.39798828 15.94199219 4.82421875 15.8828125 C8.82268997 16.03035756 10.17827217 17.25889296 13 20 C14.20272819 22.40545638 14.10071472 23.94996953 14.0625 26.625 C14.05347656 27.44226563 14.04445312 28.25953125 14.03515625 29.1015625 C14.02355469 29.72804688 14.01195312 30.35453125 14 31 C12.02 31.495 12.02 31.495 10 32 C9.01 29.03 8.02 26.06 7 23 C6.01 23.33 5.02 23.66 4 24 C3.8453125 25.6396875 3.8453125 25.6396875 3.6875 27.3125 C3 31 3 31 1.75 33 C0 34 0 34 -2.5625 33.9375 C-5 33 -5 33 -6.14013672 31.36230469 C-7.27791079 28.23649495 -7.22447588 25.59024981 -7.1953125 22.265625 C-7.18886719 20.97011719 -7.18242188 19.67460937 -7.17578125 18.33984375 C-7.15907193 16.97655981 -7.14214206 15.61327856 -7.125 14.25 C-7.1149634 12.87110015 -7.10583873 11.49219335 -7.09765625 10.11328125 C-7.07408093 6.74201118 -7.0411727 3.37109364 -7 0 C-4.31633121 -1.3418344 -2.84719317 -0.73004953 0 0 Z " fill="#F1FBFD" transform="translate(126,365)"/>
<path d="M0 0 C1.8871875 0.061875 1.8871875 0.061875 3.8125 0.125 C4.8125 4 4.8125 4 4.8125 5.125 C5.8025 5.455 6.7925 5.785 7.8125 6.125 C7.8125 12.065 7.8125 18.005 7.8125 24.125 C8.4725 24.125 9.1325 24.125 9.8125 24.125 C9.8125 24.785 9.8125 25.445 9.8125 26.125 C6.43787285 25.57776317 4.73015 25.0701 1.8125 23.125 C1.1525 23.455 0.4925 23.785 -0.1875 24.125 C-4.04383638 24.63917818 -5.7393122 24.40755318 -9.0625 22.3125 C-12.16113753 17.66454371 -12.06386816 13.55848257 -11.1875 8.125 C-8.57255198 2.98527458 -5.99543611 -0.19657168 0 0 Z " fill="#F7FDFE" transform="translate(410.1875,373.875)"/>
<path d="M0 0 C1.2065625 0.0309375 1.2065625 0.0309375 2.4375 0.0625 C3.49154945 4.04446457 3.27848656 7.04445309 2.4375 11.0625 C5.56356964 9.45769216 5.56356964 9.45769216 5.94921875 7.1171875 C6.00722656 6.39789063 6.06523437 5.67859375 6.125 4.9375 C6.228125 3.65875 6.33125 2.38 6.4375 1.0625 C11.3125 2.9375 11.3125 2.9375 12.4375 4.0625 C12.71907109 7.78393127 12.6693783 11.51919446 12.6875 15.25 C12.708125 16.29220703 12.72875 17.33441406 12.75 18.40820312 C12.77863916 24.03937893 12.69270604 28.23499784 9.4375 33.0625 C8.7775 33.7225 8.1175 34.3825 7.4375 35.0625 C2.03174384 34.8545863 -1.35870657 33.44604105 -5.5625 30.0625 C-5.5625 29.4025 -5.5625 28.7425 -5.5625 28.0625 C-6.2225 28.0625 -6.8825 28.0625 -7.5625 28.0625 C-7.5625 27.4025 -7.5625 26.7425 -7.5625 26.0625 C-3.6025 26.0625 0.3575 26.0625 4.4375 26.0625 C4.9325 21.6075 4.9325 21.6075 5.4375 17.0625 C4.0453125 17.18625 4.0453125 17.18625 2.625 17.3125 C-0.5625 17.0625 -0.5625 17.0625 -2.24609375 15.43359375 C-3.92621448 12.40738223 -3.89635237 10.31713967 -3.8125 6.875 C-3.78929687 5.27591797 -3.78929687 5.27591797 -3.765625 3.64453125 C-3.49393906 0.19098496 -3.46989306 0.08463154 0 0 Z " fill="#F2FBFD" transform="translate(384.5625,373.9375)"/>
<path d="M0 0 C1.32 0 2.64 0 4 0 C5.31992037 3.95976112 4.1173371 6.53031022 2.8125 10.3125 C2.60302734 10.96412109 2.39355469 11.61574219 2.17773438 12.28710938 C0.58731155 17.00174559 -1.42156113 21.42156113 -5 25 C-7.875 25.375 -7.875 25.375 -11 25 C-12.6875 22.9375 -12.6875 22.9375 -14 20 C-14.53625 18.948125 -15.0725 17.89625 -15.625 16.8125 C-17.43822147 12.45693098 -18.18085778 7.71091457 -18 3 C-17.34 2.34 -16.68 1.68 -16 1 C-12.70285207 1.32971479 -11.3773161 1.6226839 -9 4 C-8.59952556 6.32275177 -8.2602896 8.65739357 -8 11 C-7.34 11 -6.68 11 -6 11 C-5.62875 9.6696875 -5.62875 9.6696875 -5.25 8.3125 C-3.9351131 4.82804971 -2.62888121 2.62888121 0 0 Z " fill="#F5FCFD" transform="translate(321,374)"/>
<path d="M0 0 C3.9484001 0.23673491 6.08303051 2.58667274 8.8125 5.25 C9.62332031 6.01828125 10.43414062 6.7865625 11.26953125 7.578125 C13 10 13 10 12.9921875 12.62109375 C11.27814408 16.73074903 7.93498865 18.23504186 4 20 C0.10344767 20.68762688 -1.42184459 20.29522829 -4.9375 18.5 C-7 16 -7 16 -7.0625 12.125 C-6.09566766 7.14209485 -3.55831954 3.55831954 0 0 Z " fill="#000D0B" transform="translate(287,266)"/>
<path d="M0 0 C2 2 2 2 2.18286133 4.22729492 C2.07343901 7.21508064 1.95750206 10.20119174 1.8125 13.1875 C1.78091797 14.21681641 1.74933594 15.24613281 1.71679688 16.30664062 C1.45477269 22.23446317 0.7654067 26.73007403 -2 32 C-3.65 31.67 -5.3 31.34 -7 31 C-6.67 26.05 -6.34 21.1 -6 16 C-7.98 16 -9.96 16 -12 16 C-12.66 15.01 -13.32 14.02 -14 13 C-11 11 -11 11 -7 11 C-7.3403125 9.1128125 -7.3403125 9.1128125 -7.6875 7.1875 C-8.16341493 3.29051543 -8.16341493 3.29051543 -6.875 1 C-4.4020613 -0.31890064 -2.76393359 -0.35435046 0 0 Z " fill="#F3FCFD" transform="translate(203,368)"/>
<path d="M0 0 C2.81772631 0.18178879 3.78824553 0.76471725 5.6875 2.875 C7.95997574 6.55424644 8.18655103 9.63449365 8.25 13.875 C8.28867187 15.41800781 8.28867187 15.41800781 8.328125 16.9921875 C7.95281817 20.43250012 7.13484562 22.29057876 5 25 C1.8125 25.3125 1.8125 25.3125 -1 25 C-1.33 24.01 -1.66 23.02 -2 22 C-2.66 22 -3.32 22 -4 22 C-4.33 22.66 -4.66 23.32 -5 24 C-4.47731534 21.23723823 -3.89130413 18.6739124 -3 16 C-2.72926677 12.38592622 -2.55448271 8.77220736 -2.37890625 5.15234375 C-2 2 -2 2 0 0 Z " fill="#17C2E0" transform="translate(264,365)"/>
<path d="M0 0 C1.67542976 0.28604898 3.34385343 0.61781233 5 1 C5.125 3.375 5.125 3.375 5 6 C4.34 6.66 3.68 7.32 3 8 C2.85908518 10.47326954 2.85908518 10.47326954 4 13 C6.92321965 15.28239171 6.92321965 15.28239171 10 17 C11 18 11 18 11.25 21.3125 C11 25 11 25 9.875 27.4375 C8 29 8 29 4.9375 29.375 C2 29 2 29 0 27 C0 25.68 0 24.36 0 23 C-0.66 22.67 -1.32 22.34 -2 22 C-1.86181468 18.52048477 -1.71317399 15.04149505 -1.5625 11.5625 C-1.52318359 10.56927734 -1.48386719 9.57605469 -1.44335938 8.55273438 C-1.40146484 7.60849609 -1.35957031 6.66425781 -1.31640625 5.69140625 C-1.27974854 4.81685791 -1.24309082 3.94230957 -1.20532227 3.04125977 C-1 1 -1 1 0 0 Z " fill="#15C2E0" transform="translate(100,364)"/>
<path d="M0 0 C3.99367467 0.38400718 5.51731135 1.41906495 8.25 4.3125 C8.25 5.6325 8.25 6.9525 8.25 8.3125 C2.625 9.4375 2.625 9.4375 -0.75 8.3125 C-1.08 13.5925 -1.41 18.8725 -1.75 24.3125 C-3.4 24.6425 -5.05 24.9725 -6.75 25.3125 C-8.40079442 23.66170558 -7.97549447 21.67513821 -8.06640625 19.40234375 C-8.10830078 18.41298828 -8.15019531 17.42363281 -8.19335938 16.40429688 C-8.23267578 15.36337891 -8.27199219 14.32246094 -8.3125 13.25 C-8.35568359 12.20521484 -8.39886719 11.16042969 -8.44335938 10.08398438 C-8.54981225 7.49363116 -8.6518276 4.90317814 -8.75 2.3125 C-7.5434375 2.0959375 -7.5434375 2.0959375 -6.3125 1.875 C-3.44932123 1.24649734 -2.95796378 0.33613225 0 0 Z " fill="#F8FDFE" transform="translate(358.75,373.6875)"/>
<path d="M0 0 C1.65 0.33 3.3 0.66 5 1 C5 7.27 5 13.54 5 20 C4.34 20 3.68 20 3 20 C-0.94664677 15.93727538 -1.28152924 12.82417816 -1.3125 7.1875 C-1.18360277 1.18360277 -1.18360277 1.18360277 0 0 Z " fill="#E8F9FC" transform="translate(370,379)"/>
<path d="M0 0 C2.97 0.495 2.97 0.495 6 1 C6.12086218 7.43255401 5.82351864 13.61773055 5 20 C1.125 17.375 1.125 17.375 0 14 C-0.06970052 11.60509014 -0.08448003 9.20832309 -0.0625 6.8125 C-0.05347656 5.54019531 -0.04445312 4.26789063 -0.03515625 2.95703125 C-0.02355469 1.98121094 -0.01195312 1.00539063 0 0 Z " fill="#EEFAFC" transform="translate(207,379)"/>
<path d="M0 0 C-0.33 1.98 -0.66 3.96 -1 6 C-2.98 6 -4.96 6 -7 6 C-7 4.02 -7 2.04 -7 0 C-3.86650268 -1.04449911 -3.01031744 -0.93423645 0 0 Z " fill="#EDFAFC" transform="translate(376,367)"/>
<path d="M0 0 C2.625 0.375 2.625 0.375 5 1 C4.67 2.98 4.34 4.96 4 7 C2.35 7 0.7 7 -1 7 C-1.625 4.625 -1.625 4.625 -2 2 C-1.34 1.34 -0.68 0.68 0 0 Z " fill="#F2FBFD" transform="translate(208,366)"/>
<path d="M0 0 C1.98 0 3.96 0 6 0 C6 4.09661956 4.43058259 5.82967489 2 9 C1.67 8.01 1.34 7.02 1 6 C0.34 6 -0.32 6 -1 6 C-1.33 6.66 -1.66 7.32 -2 8 C-1.47731534 5.23723823 -0.89130413 2.6739124 0 0 Z " fill="#39CBE5" transform="translate(261,381)"/>
<path d="M0 0 C0.125 3.375 0.125 3.375 0 7 C-0.66 7.66 -1.32 8.32 -2 9 C-2.99 9 -3.98 9 -5 9 C-4.38709677 3.48387097 -4.38709677 3.48387097 -2.5 1.125 C-1 0 -1 0 0 0 Z " fill="#2AC7E3" transform="translate(412,381)"/>
<path d="M0 0 C0.66 0.33 1.32 0.66 2 1 C1.67 1.33 1.34 1.66 1 2 C0.63239269 4.32817964 0.29758419 6.6618385 0 9 C-1.32 9.33 -2.64 9.66 -4 10 C-3.67 7.69 -3.34 5.38 -3 3 C-2.34 3 -1.68 3 -1 3 C-0.67 2.01 -0.34 1.02 0 0 Z " fill="#24C6E2" transform="translate(294,380)"/>
<path d="M0 0 C1.60031344 3.20062687 0.03173691 5.72271806 -1 9 C-1.99 9 -2.98 9 -4 9 C-4.25 6.75 -4.25 6.75 -4 4 C-2 1.6875 -2 1.6875 0 0 Z " fill="#1CC4E1" transform="translate(340,381)"/>
<path d="M0 0 C1.60031344 3.20062687 0.03173691 5.72271806 -1 9 C-1.99 9 -2.98 9 -4 9 C-4.25 6.75 -4.25 6.75 -4 4 C-2 1.6875 -2 1.6875 0 0 Z " fill="#1CC4E1" transform="translate(155,381)"/>
</svg>
