<svg xmlns="http://www.w3.org/2000/svg" width="204" height="58" viewBox="0 0 204 58" fill="none"><g clip-path="url(#clip0_2_97)"><path d="M21.8812 23.1347V37.6347C21.8812 38.4493 21.8812 39.101 21.8812 39.5898C21.8812 40.2415 21.8812 40.7302 21.7129 41.219C21.7129 41.7078 21.5446 42.0336 21.5446 42.3594C21.5446 42.6853 21.3762 43.0111 21.3762 43.174C21.2079 43.6628 20.8713 44.1516 20.703 44.3145L5.04951 29.1628V44.1516C4.20792 44.3145 3.36634 44.3145 2.52475 43.8257C2.18812 43.6628 1.85149 43.4999 1.68317 43.174C1.34653 42.8482 1.17822 42.5224 0.841584 42.0336C0.673267 41.5448 0.504951 41.0561 0.336634 40.4044C0.168317 39.9156 0 39.101 0 38.1235V24.9268C0 23.6235 0 22.6459 0 21.6684C0 21.1797 0.168317 20.8538 0.168317 20.528C0.168317 20.2021 0.336634 19.7134 0.504951 19.5504C0.673267 19.2246 0.841584 19.0617 1.0099 18.7358C1.17822 18.5729 1.34653 18.41 1.68317 18.41C1.85149 18.5729 2.0198 18.7358 2.35644 19.0617C2.69307 19.5504 3.0297 19.8763 3.36634 20.365C3.87129 20.8538 4.20792 21.3426 4.71287 21.8313C5.21782 22.3201 5.72277 22.9718 6.39604 23.4606C6.90099 24.1122 7.57426 24.601 8.24753 25.2527C8.92079 25.9044 9.42574 26.5561 10.099 27.0448C12.2871 29.1628 14.6436 31.6066 17.1683 34.2134V18.5729C18.0099 18.5729 18.8515 18.7358 19.5248 18.8988C19.8614 19.0617 20.0297 19.2246 20.3663 19.3875C20.703 19.5504 20.8713 19.8763 21.0396 20.2021C21.2079 20.528 21.3762 21.0167 21.5446 21.5055C21.7129 21.8313 21.8812 22.483 21.8812 23.1347ZM48.4753 43.9887H28.4455V18.5729H48.4753C48.4753 19.2246 48.4753 19.7134 48.3069 20.2021C48.1386 20.6909 47.9703 21.0167 47.802 21.3426C47.6337 21.6684 47.297 21.9943 46.9604 22.1572C46.6238 22.3201 46.2871 22.483 45.9505 22.6459C45.2772 22.9718 44.2673 23.1347 43.4258 22.9718H33.3267V28.674H43.7624C43.7624 29.1628 43.7624 29.8145 43.5941 30.1403C43.4258 30.6291 43.2574 30.9549 43.0891 31.2808C42.9208 31.6066 42.5842 31.9325 42.4159 32.0954C42.2475 32.2583 41.9109 32.4212 41.5743 32.5842C40.901 32.91 40.2277 33.0729 39.3861 33.0729H33.3267V39.4269H43.9307C44.4357 39.4269 44.9406 39.4269 45.4456 39.5898C45.9505 39.7527 46.2871 39.9156 46.6238 40.0785C46.9604 40.2415 47.1287 40.5673 47.4654 40.7302C47.6337 41.0561 47.802 41.219 47.9703 41.5448C48.1386 42.5224 48.3069 43.174 48.4753 43.9887ZM66.1485 23.1347H63.1188V39.7527C63.1188 40.4044 63.1188 40.8931 62.9505 41.3819C62.7822 41.8707 62.6139 42.1965 62.4456 42.5224C62.2772 42.8482 61.9406 43.174 61.604 43.337C61.2673 43.4999 61.099 43.6628 60.7624 43.8257C60.0891 44.1516 59.2475 44.3145 58.406 44.3145V23.1347H55.7129C54.703 23.1347 53.8614 22.9718 53.1881 22.6459C52.8515 22.483 52.5149 22.3201 52.3465 22.1572C52.0099 21.9943 51.8416 21.6684 51.505 21.3426C51.3366 21.0167 51 20.6909 51 20.2021C50.8317 19.7134 50.8317 19.2246 50.8317 18.7358H71.0297C71.0297 19.5504 70.8614 20.365 70.5248 21.0167C70.3565 21.3426 70.1881 21.5055 70.0198 21.8313C69.8515 22.1572 69.5149 22.3201 69.1782 22.483C68.8416 22.6459 68.505 22.8089 68 22.9718C67.3268 23.1347 66.8218 23.1347 66.1485 23.1347ZM79.7822 43.9887H74.901V18.2471C75.7426 18.2471 76.5842 18.41 77.4258 18.7358C77.7624 18.8988 78.099 19.0617 78.2673 19.2246C78.604 19.3875 78.7723 19.7134 79.1089 20.0392C79.2772 20.365 79.4456 20.8538 79.6139 21.3426C79.7822 21.8313 79.7822 22.3201 79.7822 22.9718C79.7822 23.1347 79.7822 23.4606 79.7822 23.9493C79.7822 24.4381 79.7822 25.0898 79.7822 25.7415C79.7822 26.3931 79.7822 27.2077 79.7822 28.0224C79.7822 28.837 79.7822 29.8145 79.7822 30.6291C79.7822 31.6066 79.7822 32.4212 79.7822 33.3988C79.7822 34.3763 79.7822 35.3538 79.7822 36.1684C79.7822 37.146 79.7822 37.9606 79.7822 38.7752C79.7822 39.5898 79.7822 40.4044 79.7822 41.0561C79.7822 41.7078 79.7822 42.3594 79.7822 42.8482C79.7822 43.4999 79.7822 43.8257 79.7822 43.9887ZM106.208 18.7358L92.406 39.5898H101.327C102 39.5898 102.505 39.5898 103.01 39.7527C103.515 39.9156 103.852 40.0785 104.188 40.2415C104.525 40.4044 104.861 40.7302 105.03 40.8931C105.198 41.219 105.366 41.3819 105.535 41.7078C105.871 42.3594 106.04 43.174 106.04 43.9887H84.3267L97.7921 23.1347H90.0495C89.0396 23.1347 88.198 22.9718 87.5248 22.6459C87.1881 22.483 86.8515 22.3201 86.5149 22.1572C86.1782 21.9943 86.0099 21.6684 85.6733 21.3426C85.505 21.0167 85.1683 20.6909 85.1683 20.2021C85 19.7134 85 19.2246 85 18.5729H106.208V18.7358ZM131.287 43.9887H111.257V18.5729H131.287C131.287 19.2246 131.287 19.7134 131.119 20.2021C130.951 20.6909 130.782 21.0167 130.614 21.3426C130.446 21.6684 130.109 21.9943 129.772 22.1572C129.436 22.3201 129.099 22.483 128.762 22.6459C128.089 22.9718 127.079 23.1347 126.238 22.9718H116.139V28.674H126.743C126.743 29.1628 126.743 29.8145 126.574 30.1403C126.406 30.6291 126.238 30.9549 126.069 31.2808C125.901 31.6066 125.564 31.9325 125.396 32.0954C125.059 32.2583 124.891 32.4212 124.554 32.5842C123.881 32.91 123.208 33.0729 122.366 33.0729H116.139V39.4269H126.743C127.248 39.4269 127.752 39.4269 128.257 39.5898C128.762 39.7527 129.099 39.9156 129.436 40.0785C129.772 40.2415 129.941 40.5673 130.277 40.7302C130.446 41.0561 130.614 41.219 130.782 41.5448C131.119 42.5224 131.287 43.174 131.287 43.9887ZM157.545 23.1347V37.6347C157.545 38.4493 157.545 39.101 157.545 39.5898C157.545 40.2415 157.545 40.7302 157.376 41.219C157.376 41.7078 157.208 42.0336 157.208 42.3594C157.208 42.6853 157.04 43.0111 157.04 43.174C156.871 43.6628 156.535 44.1516 156.366 44.3145L140.713 29.1628V44.1516C139.871 44.3145 139.03 44.3145 138.188 43.8257C137.852 43.6628 137.515 43.4999 137.347 43.174C137.01 42.8482 136.842 42.5224 136.505 42.0336C136.337 41.5448 136.168 41.0561 136 40.4044C135.832 39.7527 135.832 38.9381 135.832 37.9606V24.7639C135.832 23.4606 135.832 22.483 135.832 21.5055C135.832 21.0167 136 20.6909 136 20.365C136 20.0392 136.168 19.5504 136.337 19.3875C136.505 19.0617 136.673 18.8988 136.842 18.5729C137.01 18.41 137.178 18.2471 137.515 18.2471C137.683 18.41 137.852 18.5729 138.188 18.8988C138.525 19.2246 138.861 19.5504 139.366 20.0392C139.871 20.528 140.208 21.0167 140.713 21.5055C141.218 21.9943 141.723 22.6459 142.396 23.1347C142.901 23.7864 143.574 24.2752 144.248 24.9268C144.921 25.5785 145.426 26.2302 146.099 26.719C148.287 28.837 150.644 31.2808 153.168 33.8875V18.2471C154.01 18.2471 154.852 18.41 155.525 18.5729C155.861 18.7358 156.03 18.8988 156.366 19.0617C156.703 19.2246 156.871 19.5504 157.04 19.8763C157.208 20.2021 157.376 20.6909 157.545 21.1797C157.545 21.8313 157.545 22.483 157.545 23.1347ZM170.337 23.1347C170 23.1347 169.663 23.1347 169.327 23.2976C169.158 23.2976 168.99 23.4606 168.822 23.4606C168.654 23.4606 168.485 23.6235 168.317 23.6235C168.149 23.7864 167.98 23.7864 167.812 23.9493C167.644 24.1122 167.475 24.2752 167.475 24.4381C167.307 24.9268 167.139 25.2527 167.139 25.5785C167.139 25.9044 167.139 26.2302 167.139 26.5561C167.139 26.8819 167.307 27.2077 167.475 27.3707C167.644 27.6965 167.812 27.8594 168.149 28.0224C168.317 28.1853 168.654 28.3482 168.99 28.5111C169.327 28.674 169.832 28.674 170.337 28.674H176.059C178.416 28.674 180.267 29.3257 181.782 30.6291C182.455 31.2808 183.129 32.0954 183.465 32.91C183.802 33.7246 183.97 34.8651 183.97 35.8426V36.3313C183.97 37.4718 183.802 38.4493 183.465 39.2639C183.129 40.0785 182.624 40.8931 181.782 41.5448C180.267 42.8482 178.416 43.4999 176.059 43.4999H167.644C166.802 43.4999 165.96 43.337 165.287 43.0111C164.951 42.8482 164.782 42.6853 164.446 42.5224C164.109 42.3594 163.941 42.0336 163.772 41.7078C163.604 41.3819 163.436 41.0561 163.267 40.5673C163.099 40.0785 163.099 39.5898 163.099 39.101H176.396C176.733 39.101 177.069 38.9381 177.406 38.9381C177.743 38.7752 177.911 38.7752 178.248 38.4493C178.584 38.2864 178.753 37.9606 178.921 37.6347C179.089 37.4718 179.257 37.146 179.257 36.983C179.257 36.8201 179.426 36.4943 179.426 36.3313C179.426 36.1684 179.426 36.0055 179.426 35.6797C179.426 35.5167 179.426 35.3538 179.426 35.1909C179.257 34.8651 179.257 34.5392 178.921 34.2134C178.753 33.8875 178.416 33.7246 178.248 33.5617C178.079 33.3988 178.079 33.3988 177.911 33.2358C177.743 33.0729 177.574 33.0729 177.406 33.0729C177.238 33.0729 177.069 32.91 176.901 32.91C176.733 32.91 176.564 32.91 176.228 32.91H170C167.812 32.91 165.96 32.2583 164.446 30.9549C163.099 29.6516 162.257 28.0224 162.257 25.9044V25.4156C162.257 23.2976 162.931 21.6684 164.446 20.365C165.96 19.0617 167.644 18.41 170 18.41H178.753C179.594 18.41 180.436 18.5729 181.109 18.7358C181.446 18.8988 181.614 19.0617 181.951 19.2246C182.287 19.3875 182.455 19.7134 182.624 20.0392C182.792 20.365 182.96 20.6909 183.129 21.1797C183.297 21.6684 183.297 22.1572 183.297 22.8089H170.337V23.1347Z" fill="#58595B"></path><path fill-rule="evenodd" clip-rule="evenodd" d="M184.309 0H199.794C202.15 0 204.17 1.95506 204.17 4.23596V19.2247C204.17 16.9438 202.15 14.9888 199.794 14.9888H188.685V4.23596C188.685 1.95506 186.665 0 184.309 0Z" fill="#0E3572"></path><path fill-rule="evenodd" clip-rule="evenodd" d="M204 30.1408V18.8992C204 16.6183 202.148 14.8262 199.792 14.8262H188.683C188.515 20.5284 191.376 22.9722 191.376 22.9722L200.128 31.4441C200.128 31.4441 200.802 31.9329 201.475 32.2588H201.98C203.158 32.2588 204 31.2812 204 30.1408Z" fill="#ED1C24"></path><path fill-rule="evenodd" clip-rule="evenodd" d="M172.86 0H184.474C186.83 0 188.682 1.79214 188.682 4.07303V14.8258C182.791 14.9888 180.266 12.2191 180.266 12.2191L171.513 3.74719C171.513 3.74719 171.009 3.09551 170.672 2.44382V2.11798C170.672 0.977528 171.682 0 172.86 0Z" fill="#3EAFD1"></path><path d="M2.0198 55.719C1.34653 55.719 0.841584 55.5561 0.504951 55.3931C0.168317 55.0673 0 54.5785 0 53.9268V47.8988H0.168317C0.336634 47.8988 0.336634 47.8988 0.504951 47.8988C0.841584 47.8988 1.0099 48.0617 1.0099 48.3875V49.8538H3.19802V50.0167V50.1797C3.19802 50.5055 3.0297 50.6684 2.86139 50.6684H1.0099V53.9268C1.0099 54.2527 1.17822 54.5785 1.34653 54.5785C1.51485 54.7414 1.85149 54.7414 2.18812 54.7414C2.35644 54.7414 2.52475 54.7414 2.69307 54.7414C2.86139 54.7414 3.0297 54.5785 3.19802 54.5785L3.36634 54.7414C3.36634 54.7414 3.36634 54.9044 3.36634 55.0673C3.36634 55.2302 3.19802 55.3931 3.0297 55.3931C2.69307 55.5561 2.52475 55.719 2.0198 55.719ZM5.21782 53.1122C5.38614 54.2527 6.22772 54.7414 7.40594 54.7414C7.74257 54.7414 8.07921 54.7414 8.41584 54.5785C8.75247 54.4156 8.92079 54.4156 9.08911 54.2527C9.25743 54.4156 9.42574 54.5785 9.42574 54.7414C9.42574 54.9044 9.42574 54.9044 9.25743 55.0673C9.08911 55.2302 8.92079 55.2302 8.75247 55.3931C8.75247 55.3931 8.41584 55.5561 8.24753 55.5561C8.07921 55.5561 7.74257 55.5561 7.40594 55.5561C6.39604 55.5561 5.55446 55.2302 5.0495 54.7414C4.54455 54.2527 4.20792 53.4381 4.20792 52.4606C4.20792 51.9718 4.20792 51.483 4.37624 51.1572C4.54455 50.8313 4.71287 50.5055 5.0495 50.3426C5.38614 50.0167 5.55446 49.8538 5.89109 49.6909C6.22772 49.528 6.56436 49.528 7.06931 49.528C7.40594 49.528 7.74257 49.528 8.07921 49.6909C8.41584 49.8538 8.75248 50.0167 8.92079 50.1797C9.08911 50.3426 9.42574 50.6684 9.42574 50.9943C9.59406 51.3201 9.59406 51.6459 9.59406 51.9718C9.59406 52.1347 9.59406 52.2976 9.42574 52.2976C9.25743 52.2976 9.25743 52.4606 9.08911 52.4606L5.21782 53.1122ZM7.06931 50.3426C6.56436 50.3426 6.05941 50.5055 5.72277 50.8313C5.38614 51.1572 5.21782 51.6459 5.21782 52.2976L8.75247 51.8089C8.75247 51.3201 8.58416 50.9943 8.24753 50.6684C7.91089 50.5055 7.57426 50.3426 7.06931 50.3426ZM13.9703 50.3426C13.6337 50.3426 13.4653 50.3426 13.1287 50.5055C12.9604 50.6684 12.6238 50.6684 12.4554 50.9943C12.2871 51.1572 12.1188 51.483 11.9505 51.6459C11.7822 51.9718 11.7822 52.2976 11.7822 52.6235C11.7822 53.2752 11.9505 53.9268 12.2871 54.2527C12.6238 54.5785 13.1287 54.9044 13.802 54.9044C14.1386 54.9044 14.4752 54.9044 14.6436 54.7414C14.8119 54.5785 15.1485 54.5785 15.3168 54.4156C15.4851 54.4156 15.4851 54.5785 15.4851 54.5785C15.4851 54.5785 15.6535 54.7414 15.6535 54.9044C15.6535 55.0673 15.6535 55.0673 15.4851 55.2302C15.6535 55.2302 15.4851 55.3931 15.3168 55.3931C15.1485 55.3931 14.9802 55.5561 14.6436 55.5561C14.4752 55.5561 14.1386 55.5561 13.9703 55.5561C13.4653 55.5561 13.1287 55.5561 12.7921 55.3931C12.4554 55.2302 12.1188 55.0673 11.7822 54.9044C11.4455 54.5785 11.2772 54.4156 11.1089 53.9268C10.9406 53.601 10.9406 53.1122 10.9406 52.6235C10.9406 52.1347 10.9406 51.6459 11.1089 51.3201C11.2772 50.8313 11.4455 50.5055 11.7822 50.3426C12.1188 50.0167 12.4554 49.8538 12.7921 49.6909C13.1287 49.528 13.6337 49.528 13.9703 49.528C14.3069 49.528 14.4752 49.528 14.6436 49.528C14.8119 49.528 15.1485 49.6909 15.3168 49.6909C15.4851 49.8538 15.6535 49.8538 15.6535 50.0167C15.6535 50.1797 15.8218 50.1797 15.8218 50.3426C15.8218 50.5055 15.8218 50.5055 15.6535 50.6684L15.4851 50.8313C15.3168 50.6684 14.9802 50.5055 14.8119 50.5055C14.6436 50.3426 14.3069 50.3426 13.9703 50.3426ZM18.3465 55.3931H18.1782C18.0099 55.3931 18.0099 55.3931 17.8416 55.3931C17.505 55.3931 17.3366 55.2302 17.3366 54.9044V47.2471H17.5049C17.6733 47.2471 17.6733 47.2471 17.8416 47.2471C18.1782 47.2471 18.3465 47.41 18.3465 47.7358V50.0167C18.5149 49.8538 18.8515 49.8538 19.0198 49.6909C19.3564 49.528 19.6931 49.528 20.0297 49.528C20.3663 49.528 20.703 49.528 21.0396 49.6909C21.3762 49.8538 21.5446 49.8538 21.8812 50.1797C22.0495 50.3426 22.2178 50.6684 22.3861 50.8313C22.5545 51.1572 22.5545 51.483 22.5545 51.8089V55.3931H22.3861C22.2178 55.3931 22.2178 55.3931 22.0495 55.3931C21.7129 55.3931 21.5446 55.2302 21.5446 54.9044V51.6459C21.5446 51.1572 21.3762 50.8313 21.0396 50.5055C20.703 50.3426 20.3663 50.1797 19.8614 50.1797C19.5248 50.1797 19.3564 50.1797 19.0198 50.3426C18.6832 50.5055 18.5149 50.5055 18.3465 50.6684V55.3931ZM28.4455 51.6459C28.4455 51.1572 28.2772 50.8313 28.1089 50.6684C27.7723 50.5055 27.4356 50.3426 26.9307 50.3426C26.5941 50.3426 26.2574 50.3426 26.0891 50.5055C25.7525 50.6684 25.5842 50.6684 25.4158 50.8313V55.3931H25.2475C25.0792 55.3931 25.0792 55.3931 24.9109 55.3931C24.5743 55.3931 24.4059 55.2302 24.4059 54.9044V50.6684C24.4059 50.5055 24.4059 50.3426 24.5743 50.1797C24.5743 50.0167 24.7426 50.0167 24.9109 49.8538C25.0792 49.6909 25.4158 49.528 25.7525 49.528C26.0891 49.365 26.5941 49.365 26.9307 49.365C27.7723 49.365 28.2772 49.528 28.7822 49.8538C29.2871 50.1797 29.4554 50.6684 29.4554 51.483V55.3931H29.2871C29.1188 55.3931 29.1188 55.3931 28.9505 55.3931C28.6139 55.3931 28.4455 55.2302 28.4455 54.9044V51.6459ZM36.8614 52.6235C36.8614 53.1122 36.8614 53.4381 36.6931 53.9268C36.5247 54.2527 36.3564 54.5785 36.0198 54.9044C35.6832 55.2302 35.5149 55.3931 35.0099 55.5561C34.6733 55.719 34.1683 55.719 33.8317 55.719C33.3267 55.719 32.9901 55.719 32.6535 55.5561C32.3168 55.3931 31.9802 55.2302 31.6436 54.9044C31.3069 54.5785 31.1386 54.2527 30.9703 53.9268C30.802 53.601 30.802 53.1122 30.802 52.6235C30.802 52.1347 30.802 51.8089 30.9703 51.3201C31.1386 50.9943 31.3069 50.6684 31.6436 50.3426C31.9802 50.0167 32.1485 49.8538 32.6535 49.6909C32.9901 49.528 33.495 49.528 33.8317 49.528C34.3366 49.528 34.6733 49.528 35.0099 49.6909C35.3465 49.8538 35.6832 50.0167 36.0198 50.3426C36.3564 50.6684 36.5247 50.9943 36.6931 51.3201C36.8614 51.6459 36.8614 52.1347 36.8614 52.6235ZM34 50.3426C33.3267 50.3426 32.9901 50.5055 32.6535 50.9943C32.3168 51.3201 32.1485 51.9718 32.1485 52.6235C32.1485 53.2752 32.3168 53.9268 32.6535 54.2527C32.9901 54.5785 33.495 54.9044 34 54.9044C34.6733 54.9044 35.0099 54.7414 35.3465 54.2527C35.6832 53.9268 35.8515 53.2752 35.8515 52.6235C35.8515 51.9718 35.6832 51.3201 35.3465 50.9943C35.0099 50.5055 34.505 50.3426 34 50.3426ZM39.5545 55.3931H39.3861C39.2178 55.3931 39.2178 55.3931 39.0495 55.3931C38.7129 55.3931 38.5446 55.2302 38.5446 54.9044V47.2471H38.7129C38.8812 47.2471 38.8812 47.2471 39.0495 47.2471C39.3861 47.2471 39.5545 47.41 39.5545 47.7358V55.3931ZM47.1287 52.6235C47.1287 53.1122 47.1287 53.4381 46.9604 53.9268C46.7921 54.2527 46.6238 54.5785 46.2871 54.9044C45.9505 55.2302 45.7822 55.3931 45.2772 55.5561C44.9406 55.719 44.4356 55.719 44.099 55.719C43.5941 55.719 43.2574 55.719 42.9208 55.5561C42.5842 55.3931 42.2475 55.2302 41.9109 54.9044C41.5743 54.5785 41.4059 54.2527 41.2376 53.9268C41.0693 53.601 41.0693 53.1122 41.0693 52.6235C41.0693 52.1347 41.0693 51.8089 41.2376 51.3201C41.4059 50.9943 41.5743 50.6684 41.9109 50.3426C42.2475 50.0167 42.4158 49.8538 42.9208 49.6909C43.2574 49.528 43.7624 49.528 44.099 49.528C44.4356 49.528 44.9406 49.528 45.2772 49.6909C45.6139 49.8538 45.9505 50.0167 46.2871 50.3426C46.6238 50.6684 46.7921 50.9943 46.9604 51.3201C46.9604 51.6459 47.1287 52.1347 47.1287 52.6235ZM44.099 50.3426C43.4257 50.3426 43.0891 50.5055 42.7525 50.9943C42.4158 51.3201 42.2475 51.9718 42.2475 52.6235C42.2475 53.2752 42.4158 53.9268 42.7525 54.2527C43.0891 54.5785 43.5941 54.9044 44.099 54.9044C44.7723 54.9044 45.1089 54.7414 45.4455 54.2527C45.7822 53.9268 45.9505 53.2752 45.9505 52.6235C45.9505 51.9718 45.7822 51.3201 45.4455 50.9943C45.1089 50.5055 44.7723 50.3426 44.099 50.3426ZM52.5149 54.9044C52.3465 55.0673 52.1782 55.0673 51.8416 55.2302C51.5049 55.3931 51.3366 55.3931 51 55.3931C50.6634 55.3931 50.3267 55.3931 49.9901 55.2302C49.6535 55.0673 49.3168 54.9044 49.1485 54.7414C48.8119 54.5785 48.6436 54.2527 48.4752 53.7639C48.3069 53.4381 48.3069 52.9493 48.3069 52.4606C48.3069 51.9718 48.3069 51.483 48.4752 51.1572C48.6436 50.8313 48.8119 50.5055 49.1485 50.1797C49.4851 50.0167 49.6535 49.6909 50.1584 49.6909C50.495 49.528 51 49.528 51.3366 49.528C51.6733 49.528 52.1782 49.528 52.5149 49.6909C52.8515 49.8538 53.1881 49.8538 53.3564 50.0167C53.5248 50.1797 53.5247 50.1797 53.6931 50.3426C53.6931 50.5055 53.8614 50.5055 53.8614 50.6684V55.719C53.8614 56.2077 53.8614 56.5336 53.6931 56.8594C53.5247 57.1853 53.3564 57.3482 53.0198 57.5111C52.6832 57.674 52.5149 57.837 52.1782 57.837C51.8416 57.9999 51.5049 57.9999 51 57.9999C50.495 57.9999 50.1584 57.9999 49.8218 57.837C49.4851 57.674 49.3168 57.674 49.1485 57.674C48.8119 57.5111 48.8119 57.3482 48.8119 57.1853C48.8119 57.0223 48.8119 57.0223 48.9802 56.8594L49.1485 56.6965C49.3168 56.8594 49.6535 57.0223 49.9901 57.0223C50.3267 57.1853 50.6634 57.1853 51 57.1853C51.5049 57.1853 52.0099 57.0223 52.3465 56.8594C52.6832 56.6965 52.8515 56.2077 52.8515 55.719V54.9044H52.5149ZM51.1683 54.4156C51.5049 54.4156 51.8416 54.4156 52.0099 54.2527C52.1782 54.0898 52.3465 54.0898 52.5149 53.9268V50.6684C52.3465 50.5055 52.1782 50.5055 52.0099 50.5055C51.8416 50.5055 51.5049 50.3426 51.1683 50.3426C50.495 50.3426 50.1584 50.5055 49.8218 50.8313C49.4851 51.1572 49.3168 51.6459 49.3168 52.2976C49.3168 52.6235 49.3168 52.9493 49.4851 53.2752C49.6535 53.601 49.6535 53.7639 49.8218 53.9268C49.9901 54.0898 50.1584 54.2527 50.495 54.2527C50.6634 54.4156 50.8317 54.4156 51.1683 54.4156ZM56.5545 55.3931H56.3861C56.2178 55.3931 56.2178 55.3931 56.0495 55.3931C55.7129 55.3931 55.5446 55.2302 55.5446 54.9044V49.528H55.7129C55.8812 49.528 55.8812 49.528 56.0495 49.528C56.3861 49.528 56.5545 49.6909 56.5545 50.0167V55.3931ZM55.3762 47.8988C55.3762 47.7358 55.3762 47.5729 55.5446 47.41C55.7129 47.2471 55.8812 47.2471 56.0495 47.2471C56.2178 47.2471 56.3861 47.2471 56.5545 47.41C56.7228 47.5729 56.7228 47.7358 56.7228 47.8988C56.7228 48.0617 56.7228 48.2246 56.5545 48.3875C56.3861 48.5504 56.2178 48.5504 56.0495 48.5504C55.8812 48.5504 55.7129 48.5504 55.5446 48.3875C55.3762 48.2246 55.3762 48.0617 55.3762 47.8988ZM59.2475 53.1122C59.4158 54.2527 60.2574 54.7414 61.4356 54.7414C61.7723 54.7414 62.1089 54.7414 62.4455 54.5785C62.7822 54.4156 62.9505 54.4156 63.1188 54.2527C63.2871 54.4156 63.4554 54.5785 63.4554 54.7414C63.4554 54.9044 63.4554 54.9044 63.2871 55.0673C63.1188 55.2302 62.9505 55.2302 62.7822 55.3931C62.6139 55.5561 62.4455 55.5561 62.1089 55.5561C61.9406 55.5561 61.604 55.5561 61.2673 55.5561C60.2574 55.5561 59.4158 55.2302 58.9109 54.7414C58.4059 54.2527 58.0693 53.4381 58.0693 52.4606C58.0693 51.9718 58.0693 51.483 58.2376 51.1572C58.4059 50.8313 58.5743 50.5055 58.9109 50.1797C59.2475 49.8538 59.4158 49.6909 59.7525 49.528C60.0891 49.365 60.4257 49.365 60.9307 49.365C61.2673 49.365 61.604 49.365 61.9406 49.528C62.2772 49.6909 62.6139 49.8538 62.7822 50.0167C62.9505 50.1797 63.2871 50.5055 63.2871 50.8313C63.4554 51.1572 63.4554 51.483 63.4554 51.8089C63.4554 51.9718 63.4554 52.1347 63.2871 52.1347C63.1188 52.1347 63.1188 52.2976 62.9505 52.2976L59.2475 53.1122ZM60.9307 50.3426C60.4257 50.3426 59.9208 50.5055 59.5842 50.8313C59.2475 51.1572 59.0792 51.6459 59.0792 52.2976L62.6139 51.8089C62.6139 51.3201 62.4455 50.9943 62.1089 50.6684C61.9406 50.5055 61.4356 50.3426 60.9307 50.3426ZM69.3465 53.9268C69.3465 54.4156 69.1782 54.9044 68.6733 55.2302C68.3366 55.5561 67.6634 55.719 66.8218 55.719C66.4851 55.719 66.1485 55.719 65.9802 55.5561C65.6436 55.5561 65.4752 55.3931 65.3069 55.3931C65.1386 55.3931 64.9703 55.2302 64.802 55.0673C64.6337 54.9044 64.6337 54.9044 64.6337 54.7414C64.6337 54.5785 64.6337 54.5785 64.802 54.4156C64.802 54.2527 64.9703 54.2527 65.1386 54.2527C65.3069 54.4156 65.6436 54.5785 65.9802 54.7414C66.3168 54.9044 66.6535 54.9044 66.9901 54.9044C67.8317 54.9044 68.3366 54.5785 68.3366 54.0898C68.3366 53.601 68 53.2752 67.495 53.1122L66.4851 52.7864C65.9802 52.6235 65.6436 52.4606 65.3069 52.1347C65.1386 51.8089 64.9703 51.483 64.9703 51.1572C64.9703 50.9943 64.9703 50.6684 65.1386 50.5055C65.3069 50.3426 65.3069 50.1797 65.6436 50.0167C65.8119 49.8538 66.1485 49.6909 66.3168 49.6909C66.6535 49.528 66.9901 49.528 67.3267 49.528C68 49.528 68.505 49.6909 68.8416 49.8538C69.1782 50.0167 69.3465 50.1797 69.3465 50.5055C69.3465 50.6684 69.3465 50.6684 69.1782 50.8313C69.1782 50.9943 69.0099 50.9943 69.0099 50.9943C68.8416 50.8313 68.6733 50.8313 68.3366 50.6684C68 50.5055 67.6634 50.5055 67.3267 50.5055C66.9901 50.5055 66.6535 50.5055 66.3168 50.6684C66.1485 50.8313 65.9802 50.9943 65.9802 51.3201C65.9802 51.483 65.9802 51.6459 66.1485 51.8089C66.3168 51.9718 66.4851 51.9718 66.8218 52.1347L67.6634 52.2976C68.3366 52.4605 68.6733 52.6235 69.0099 52.9493C69.1782 53.1122 69.3465 53.4381 69.3465 53.9268Z" fill="#58595B"></path></g><defs><clipPath id="clip0_2_97"><rect width="204" height="58" fill="white"></rect></clipPath></defs></svg>